<?xml version="1.0" standalone="no"?>
<!DOCTYPE svg PUBLIC "-//W3C//DTD SVG 20010904//EN"
 "http://www.w3.org/TR/2001/REC-SVG-20010904/DTD/svg10.dtd">
<svg version="1.0" xmlns="http://www.w3.org/2000/svg"
 width="306.000000pt" height="306.000000pt" viewBox="0 0 306.000000 306.000000"
 preserveAspectRatio="xMidYMid meet">
<metadata>
Created by potrace 1.11, written by Peter Selinger 2001-2013
</metadata>
<g transform="translate(0.000000,306.000000) scale(0.100000,-0.100000)"
fill="#000000" stroke="none">
<path d="M1210 2922 c-171 -82 -284 -261 -285 -453 0 -71 4 -93 24 -132 l24
-46 -62 -67 c-125 -136 -329 -478 -391 -654 -28 -80 -38 -237 -20 -319 22
-101 73 -193 144 -258 35 -32 81 -67 102 -79 22 -11 39 -26 39 -33 0 -8 -29
-23 -67 -35 -123 -40 -186 -124 -187 -249 -1 -72 17 -113 71 -162 l40 -38 -4
-121 c-5 -117 -8 -132 -53 -238 -11 -26 23 -23 44 4 19 23 44 17 34 -7 -4 -13
14 -15 115 -15 l121 0 -2 103 c-2 113 12 162 48 162 28 0 47 -47 52 -129 2
-39 6 -86 9 -104 l5 -32 554 0 554 0 3 63 3 62 30 -60 30 -60 133 -3 c87 -2
132 1 132 8 0 6 -10 27 -23 48 -47 76 -100 214 -118 305 -9 48 -8 52 20 81 79
84 99 212 48 311 -44 87 -141 160 -237 180 -53 11 -53 13 -11 62 119 135 144
402 61 649 -103 304 -369 636 -612 764 -33 17 -51 33 -49 41 59 196 20 365
-99 437 -47 28 -63 32 -120 31 -38 0 -79 -7 -100 -17z m-2 -94 c-6 -17 -56
-41 -69 -33 -16 11 21 45 48 45 15 0 23 -5 21 -12z m-88 -52 c0 -19 -48 -79
-76 -95 -19 -11 -35 -28 -35 -38 -2 -32 2 -58 12 -67 14 -15 11 -90 -5 -112
-18 -23 -25 -17 -36 32 -18 78 25 211 83 260 25 21 57 32 57 20z m-30 -130 c0
-16 -19 -25 -38 -18 -9 3 -10 8 -1 18 15 18 39 18 39 0z m456 -277 c3 -5 15
-9 27 -10 18 0 16 -3 -10 -15 -18 -8 -33 -17 -33 -20 0 -3 5 -2 10 1 6 3 10
-1 10 -9 0 -9 -7 -16 -15 -16 -8 0 -15 4 -15 9 0 5 -13 14 -30 21 -36 15 -36
17 -10 40 20 18 55 17 66 -1z m-7 -321 c37 -23 71 -72 71 -103 0 -52 -55 -88
-159 -106 -334 -59 -492 -68 -548 -33 -26 16 -63 83 -63 113 0 24 51 68 105
91 69 28 189 52 312 60 155 10 239 4 282 -22z m-737 -51 c-29 -35 -126 -244
-159 -342 -35 -105 -37 -116 -37 -250 -1 -129 1 -144 23 -190 15 -30 57 -82
104 -129 68 -66 78 -80 64 -88 -9 -5 -17 -16 -17 -23 0 -23 -14 -18 -68 24
-66 52 -116 115 -149 187 -22 48 -28 77 -31 154 -6 137 19 221 128 442 55 110
138 243 147 234 3 -3 1 -12 -5 -19z m587 -621 c20 -110 8 -143 -54 -148 l-40
-3 -3 100 c-3 109 4 125 58 125 25 0 27 -4 39 -74z m-121 -40 c2 -57 -2 -104
-7 -109 -14 -14 -39 8 -57 51 -14 36 -19 143 -7 156 4 4 21 6 38 4 l30 -3 3
-99z m-361 -433 c-3 -2 -26 4 -51 15 -43 20 -44 21 -33 46 l12 27 38 -41 c22
-23 37 -44 34 -47z m-57 -90 c0 -19 5 -44 12 -56 14 -28 69 -77 86 -77 6 0 12
-3 12 -8 0 -4 12 -13 28 -19 119 -53 274 -71 455 -54 135 13 258 35 289 52 10
5 24 9 31 9 24 0 135 59 146 77 9 16 10 16 11 -4 0 -14 -6 -23 -15 -23 -8 0
-15 -3 -15 -8 0 -10 -99 -52 -170 -72 -25 -7 -55 -16 -68 -21 -12 -5 -94 -14
-181 -21 -125 -9 -187 -9 -287 0 -71 7 -133 17 -138 22 -6 6 -20 10 -33 10
-13 0 -23 5 -23 10 0 6 -11 10 -25 10 -14 0 -25 5 -25 10 0 6 -7 10 -16 10 -8
0 -13 4 -10 9 4 5 -4 7 -16 3 -17 -4 -20 -2 -15 11 4 11 2 14 -7 11 -7 -3 -16
2 -20 11 -3 9 -2 13 4 10 12 -7 12 -3 4 19 -3 9 -10 16 -16 16 -5 0 -7 -4 -3
-9 3 -5 1 -12 -4 -15 -5 -4 -8 18 -6 51 2 45 1 49 -4 18 -3 -24 -9 -35 -14
-28 -4 6 -5 30 -1 52 8 50 34 46 34 -6z m-255 -126 c-8 -20 -15 -60 -16 -89
-1 -48 -2 -50 -10 -23 -11 36 -3 90 19 127 22 37 26 29 7 -15z m371 -262 c6
-24 -9 -55 -27 -55 -4 0 -20 11 -36 24 -24 20 -25 26 -14 40 7 9 26 16 42 16
22 0 30 -6 35 -25z m-282 -270 c-5 -31 -13 -56 -19 -55 -5 0 -9 11 -7 23 2 12
6 42 9 65 4 31 8 41 16 33 7 -7 7 -28 1 -66z"/>
</g>
</svg>
